<svg xmlns="http://www.w3.org/2000/svg" viewBox="0 0 55 55" width="55" height="55">
	<style>
		tspan { white-space:pre }
		.shp0 { fill: #262626 } 
	</style>
	<g id="body">
		<g id="services">
			<g id="wellozganized">
				<path id="icon" class="shp0" d="M54 15.9C55.03 15.71 55.33 14.37 54.48 13.75C53.03 12.69 51.16 11.65 49.76 11.96L52.67 4.74C53.06 3.77 52.09 2.79 51.11 3.18L43.88 6.08C44.19 4.68 43.15 2.82 42.09 1.37C41.48 0.52 40.14 0.81 39.95 1.85C39.39 4.82 38.01 8.16 37.31 9.74C38.09 10.23 38.81 10.82 39.48 11.49L44.36 16.36C45.03 17.03 45.61 17.75 46.11 18.53C47.69 17.83 51.03 16.45 54 15.9ZM42.73 17.99L37.86 13.11C35.73 10.99 33 9.97 30.29 9.97C26.58 9.97 22.92 11.87 20.91 15.45L15.56 24.96L21.37 34.53L13.02 29.47L1.25 50.41C0.01 52.61 1.76 55 3.91 55C4.4 55 4.91 54.87 5.42 54.59L14.58 49.45L11.5 43.75L18.25 47.39L37.05 36.82L31.89 27.81L42.17 33.7C46.77 29.73 47.23 22.49 42.73 17.99Z" />
			</g>
		</g>
	</g>
</svg>