<svg xmlns="http://www.w3.org/2000/svg" viewBox="0 0 55 49" width="55" height="49">
	<style>
		tspan { white-space:pre }
		.shp0 { fill: #262626 } 
	</style>
	<g id="body">
		<g id="services">
			<g id="qualityproduct">
				<path id="icon" class="shp0" d="M30.28 16.73C30.77 15.57 31.09 14.22 31.16 12.81C31.27 11.4 31.07 9.92 30.65 8.49C30.21 7.07 29.54 5.68 28.6 4.49C27.68 3.29 26.52 2.28 25.3 1.62C24.08 0.96 22.82 0.67 21.94 0.7C21.51 0.69 21.13 0.81 20.91 0.87C20.68 0.94 20.56 0.98 20.56 0.98C20.56 0.98 20.59 1.1 20.64 1.33C20.69 1.54 20.69 1.91 20.73 2.25C20.76 3 20.68 3.91 20.59 4.9C20.43 6.84 20.47 9.12 21.18 11.36C21.53 12.48 21.98 13.59 22.6 14.62C23.18 15.65 23.89 16.61 24.62 17.43C25.27 18.15 26.75 19.84 27.28 20.26C27.42 19.31 27.54 18.33 27.56 17.34C27.62 16.64 27.57 15.95 27.56 15.26C27.55 14.58 27.42 13.91 27.36 13.26C27.25 12.62 27.09 12.01 26.96 11.42C26.76 10.86 26.56 10.33 26.39 9.83C26.14 9.37 25.91 8.95 25.7 8.57C25.53 8.18 25.23 7.93 25.06 7.68C24.68 7.19 24.45 6.92 24.45 6.92C24.45 6.92 24.7 7.17 25.11 7.63C25.31 7.87 25.62 8.11 25.83 8.49C26.07 8.86 26.33 9.27 26.62 9.72C26.84 10.21 27.07 10.74 27.33 11.3C27.5 11.89 27.71 12.51 27.88 13.16C27.99 13.82 28.16 14.5 28.23 15.2C28.29 15.91 28.39 16.62 28.39 17.34C28.42 18.15 28.4 18.96 28.37 19.75C28.43 19.68 28.51 19.63 28.57 19.55C29.17 18.87 29.79 17.89 30.28 16.73ZM23.9 22.68C24 22.86 24.09 23.02 24.19 23.2C18.81 24.22 14.44 28.1 12.71 33.21L13.07 33.25C13.52 33.25 14.19 33.36 15.35 33.57C15.38 33.22 15.5 32.89 15.71 32.61C16.57 31.48 17.81 30.88 19.31 30.88C21.56 30.89 23.95 30.95 26.36 31.68C27.63 32.07 28.93 31.99 30.25 31.46C34.05 29.94 37.38 30.08 40.08 31.84C40.41 32.06 40.76 32.29 41.11 32.53C39.19 27.64 34.81 23.99 29.49 23.12C29.63 22.87 29.77 22.61 29.93 22.35C30.08 22.11 30.38 21.47 30.34 21.32C30.32 21.22 30.32 21.13 30.32 21.04C29.78 21.72 29.29 22.41 28.86 23.06C28.6 23.03 28.33 23.02 28.06 23C28.2 21.98 28.32 20.89 28.37 19.75C28.28 19.84 28.21 19.93 28.11 20.01C27.94 20.13 27.68 21.03 27.62 21.4C27.52 21.93 27.42 22.44 27.31 22.94C27.22 22.94 27.13 22.92 27.04 22.92C26.26 22.92 25.5 22.98 24.76 23.09C24.38 22.53 23.97 21.95 23.51 21.37C23.5 21.46 23.51 21.55 23.49 21.64C23.45 21.8 23.75 22.44 23.9 22.68ZM32.66 18.52C33.05 18.15 33.49 17.85 33.88 17.53C34.3 17.24 34.73 16.99 35.12 16.74C35.55 16.55 35.94 16.37 36.31 16.2C36.7 16.08 37.06 15.98 37.38 15.89C37.69 15.77 37.98 15.79 38.21 15.75C38.68 15.7 38.94 15.67 38.94 15.67C38.94 15.67 38.68 15.72 38.22 15.8C37.99 15.86 37.7 15.86 37.41 16C37.1 16.11 36.76 16.24 36.39 16.37C36.05 16.56 35.67 16.77 35.27 16.99C34.9 17.26 34.51 17.53 34.13 17.84C33.77 18.18 33.37 18.5 33.02 18.89C32.67 19.27 32.3 19.64 31.98 20.07C31.5 20.64 31.08 21.26 30.68 21.87C31.2 21.89 32.88 21.67 33.62 21.58C34.44 21.48 35.32 21.29 36.17 20.99C37.03 20.71 37.84 20.3 38.6 19.84C40.12 18.92 41.28 17.64 42.15 16.45C42.59 15.84 43 15.29 43.39 14.88C43.58 14.7 43.77 14.49 43.9 14.39C44.04 14.29 44.12 14.24 44.12 14.24C44.12 14.24 44.07 14.15 43.98 13.99C43.88 13.85 43.72 13.59 43.47 13.39C42.98 12.93 42.12 12.47 41.1 12.24C40.08 12.01 38.91 12 37.79 12.23C36.66 12.44 35.59 12.89 34.63 13.49C33.68 14.09 32.83 14.84 32.18 15.7C31.53 16.54 31.04 17.46 30.73 18.36C30.44 19.27 30.3 20.14 30.31 20.83C30.31 20.9 30.32 20.97 30.32 21.04C30.7 20.57 31.09 20.11 31.51 19.65C31.86 19.25 32.28 18.89 32.66 18.52ZM10.43 15.21C10.83 15.62 11.23 16.17 11.67 16.78C12.55 17.97 13.71 19.24 15.23 20.17C15.98 20.63 16.8 21.04 17.66 21.32C18.51 21.62 19.39 21.81 20.21 21.91C20.95 22 22.63 22.22 23.14 22.2C22.75 21.58 22.32 20.97 21.84 20.39C21.53 19.97 21.15 19.6 20.81 19.21C20.46 18.83 20.06 18.51 19.7 18.17C19.31 17.86 18.92 17.59 18.55 17.32C18.16 17.1 17.78 16.89 17.44 16.7C17.06 16.56 16.72 16.44 16.42 16.32C16.12 16.19 15.83 16.19 15.61 16.13C15.15 16.05 14.88 16 14.88 16C14.88 16 15.15 16.03 15.61 16.08C15.85 16.12 16.14 16.1 16.45 16.21C16.77 16.3 17.12 16.41 17.51 16.52C17.88 16.69 18.28 16.88 18.71 17.07C19.1 17.32 19.52 17.57 19.94 17.86C20.33 18.18 20.77 18.48 21.16 18.85C21.55 19.22 21.96 19.57 22.32 19.98C22.74 20.43 23.13 20.9 23.51 21.37C23.51 21.3 23.52 21.23 23.52 21.15C23.53 20.47 23.39 19.6 23.09 18.69C22.79 17.79 22.3 16.86 21.64 16.03C21 15.17 20.15 14.42 19.2 13.82C18.24 13.22 17.17 12.77 16.03 12.56C14.92 12.33 13.75 12.33 12.73 12.56C11.71 12.8 10.84 13.26 10.35 13.72C10.1 13.92 9.94 14.18 9.85 14.32C9.76 14.48 9.71 14.56 9.71 14.56C9.71 14.56 9.78 14.62 9.92 14.72C10.06 14.82 10.25 15.03 10.43 15.21ZM47.37 40.3C45.05 37.15 42.01 34.8 38.8 32.71C36.2 31.02 33.24 31.38 30.49 32.49C28.8 33.16 27.12 33.24 25.5 32.75C23.33 32.1 21.16 32.03 18.95 32.02C18 32.02 17.21 32.35 16.65 33.09C16.33 33.51 18.91 35.24 21.13 35.24C20.72 36.06 13.56 34.32 12.61 34.39L7.19 33.7C5.27 33.54 5.27 32.82 3.38 33.88C3.32 33.92 3.22 33.92 3.14 33.92C2.09 33.86 1.5 34.19 0.91 34.89C0.57 35.29 0.6 35.78 0.78 36.25C0.97 36.74 1.45 36.62 1.85 36.77C4.27 37.73 5.05 38.2 8.33 39.01C10.67 39.59 12.94 40.29 15.28 40.82C16.24 41.04 17.22 41.2 18.09 41.69C19.94 42.73 21.9 43.05 24.01 42.95C26.4 42.84 28.8 42.94 31.2 42.92C35.42 42.9 38.62 44.59 40.78 48.3L54.33 48.27C51.38 44.81 50.07 43.97 47.37 40.3Z" />
			</g>
		</g>
	</g>
</svg>