<svg xmlns="http://www.w3.org/2000/svg" viewBox="0 0 47 44" width="47" height="44">
	<style>
		tspan { white-space:pre }
		.shp0 { fill: #262626 } 
	</style>
	<g id="body">
		<g id="services">
			<g id="onlineshopping">
				<path id="icon" class="shp0" d="M45.06 6.01C44.56 5.37 43.79 4.99 42.97 4.99L15.85 4.99C15 4.99 14.2 5.4 13.7 6.08C13.2 6.77 13.06 7.66 13.32 8.47L18.31 24.08C18.53 24.76 19.17 25.23 19.89 25.23L40.19 25.23C40.96 25.23 41.62 24.7 41.8 23.96L45.56 8.28C45.75 7.49 45.57 6.65 45.06 6.01ZM44.42 28.18L18.24 28.18C17.31 28.18 16.49 27.59 16.21 26.71L9 4.35C8.32 2.24 6.37 0.82 4.15 0.82L2.58 0.82C1.24 0.82 0.15 1.91 0.15 3.25C0.15 4.59 1.24 5.68 2.58 5.68L4.15 5.68C4.26 5.68 4.35 5.75 4.38 5.84L11.59 28.2C12.52 31.09 15.19 33.04 18.24 33.04L44.42 33.04C45.76 33.04 46.85 31.95 46.85 30.61C46.85 29.27 45.76 28.18 44.42 28.18ZM19.96 35.84C17.82 35.84 16.09 37.57 16.09 39.71C16.09 41.85 17.82 43.58 19.96 43.58C22.09 43.58 23.83 41.85 23.83 39.71C23.83 37.57 22.09 35.84 19.96 35.84ZM40.29 35.84C38.15 35.84 36.42 37.57 36.42 39.71C36.42 41.85 38.15 43.58 40.29 43.58C42.42 43.58 44.16 41.85 44.16 39.71C44.16 37.57 42.42 35.84 40.29 35.84Z" />
			</g>
		</g>
	</g>
</svg>